<svg aria-hidden="true" style="width:0;height:0;position:absolute;overflow:hidden" xmlns="http://www.w3.org/2000/svg"><defs><symbol id="icon-star" viewBox="0 0 34 32"><path fill="#ffe550" style="fill:var(--color1,#ffe550)" d="M15.427 1.035c.584-1.385 2.577-1.385 3.161 0l3.45 8.166c.246.582.804.98 1.445 1.032l8.956.706c1.517.12 2.133 1.983.976 2.959l-6.823 5.755a1.669 1.669 0 0 0-.55 1.682l-.002-.011 2.085 8.604c.352 1.457-1.259 2.609-2.557 1.829L17.9 27.145a1.732 1.732 0 0 0-1.792.004l.008-.004-7.668 4.612c-1.301.78-2.909-.372-2.557-1.829l2.085-8.604a1.665 1.665 0 0 0-.55-1.669l-.003-.002L.6 13.9c-1.157-.976-.54-2.841.976-2.961l8.956-.704a1.711 1.711 0 0 0 1.44-1.021l.004-.011 3.45-8.168z"/></symbol></defs></svg>