<svg aria-hidden="true" style="position: absolute; width: 0; height: 0; overflow: hidden;" version="1.1" xmlns="http://www.w3.org/2000/svg" xmlns:xlink="http://www.w3.org/1999/xlink">
<defs>
<symbol id="icon-star" viewBox="0 0 34 32">
<path fill="#ffe550" style="fill: var(--color1, #ffe550)" d="M15.427 1.035c0.584-1.385 2.577-1.385 3.161 0l3.45 8.166c0.246 0.582 0.804 0.98 1.445 1.032l8.956 0.706c1.517 0.12 2.133 1.983 0.976 2.959l-6.823 5.755c-0.367 0.309-0.598 0.768-0.598 1.281 0 0.138 0.017 0.273 0.048 0.401l-0.002-0.011 2.085 8.604c0.352 1.457-1.259 2.609-2.557 1.829l-7.668-4.612c-0.255-0.155-0.563-0.247-0.892-0.247s-0.638 0.092-0.9 0.251l0.008-0.004-7.668 4.612c-1.301 0.78-2.909-0.372-2.557-1.829l2.085-8.604c0.029-0.117 0.046-0.251 0.046-0.39 0-0.513-0.231-0.973-0.596-1.279l-0.003-0.002-6.823-5.753c-1.157-0.976-0.54-2.841 0.976-2.961l8.956-0.704c0.65-0.050 1.194-0.456 1.44-1.021l0.004-0.011 3.45-8.168z"></path>
</symbol>
</defs>
</svg>
